#!OML:ASF F:\VICON\USERDATA\INSTALL\rory3\rory3.ASF
:FULLY-SPECIFIED
:DEGREES
2029
root 12.1424 17.7062 -5.20301 185.278 223.834 182.307
lowerback 2.41124 -3.95308 -5.25511
upperback 0.353574 -5.40433 4.35728
thorax -0.0719071 -2.73933 7.58643
lowerneck -9.68005 -3.83802 -13.4661
upperneck 39.705 -5.30348 4.21612
head 16.4114 -4.06721 3.27934
rclavicle 8.94531e-015 9.54166e-015
rhumerus -34.0453 -6.55373 -75.2538
rradius 35.2053
rwrist 18.2595
rhand -27.3206 2.93678
rfingers 7.12502
rthumb -0.729732 -27.0417
lclavicle 8.94531e-015 9.54166e-015
lhumerus -28.3905 6.90427 87.3502
lradius 32.7964
lwrist -8.88065
lhand -18.1141 23.4598
lfingers 7.12502
lthumb 8.1602 53.2822
rfemur -9.89331 5.43288 22.4988
rtibia 30.157
rfoot -22.8459 -2.75718
rtoes 1.7339
lfemur -29.9778 8.19933 -19.4959
ltibia 57.4349
lfoot -9.43842 9.24449
ltoes -9.20819
2030
root 12.1074 17.7074 -5.17222 185.141 224.172 182.376
lowerback 2.4861 -3.84425 -5.16161
upperback 0.369349 -5.25803 4.25491
thorax -0.140788 -2.66214 7.43044
lowerneck -9.665 -3.86422 -13.2462
upperneck 39.6724 -5.36447 4.11704
head 16.3827 -4.07135 3.18536
rclavicle 4.23411e-014 -3.18055e-015
rhumerus -34.0776 -6.70492 -75.3948
rradius 35.3358
rwrist 18.2807
rhand -27.0464 2.88347
rfingers 7.12502
rthumb -0.464912 -27.0958
lclavicle 4.23411e-014 -3.18055e-015
lhumerus -28.4148 7.16798 87.1027
lradius 32.0227
lwrist -8.92747
lhand -18.1053 23.6578
lfingers 7.12502
lthumb 8.16873 53.4799
rfemur -9.51916 5.60453 22.4528
rtibia 29.8987
rfoot -22.7991 -2.62353
rtoes 1.55262
lfemur -30.371 7.98578 -19.4261
ltibia 57.3029
lfoot -9.57379 8.55673
ltoes -9.6462
2031
root 12.0688 17.7156 -5.13947 185.155 224.513 182.308
lowerback 2.46775 -3.75479 -4.96606
upperback 0.387665 -5.13221 4.20021
thorax -0.155083 -2.59788 7.25893
lowerneck -9.66781 -3.88764 -13.2064
upperneck 39.6793 -5.41077 4.10967
head 16.3906 -4.08662 3.16697
rclavicle 1.58431e-013 1.03368e-014
rhumerus -34.117 -6.51366 -75.5874
rradius 35.5052
rwrist 18.1316
rhand -27.1422 2.72802
rfingers 7.12502
rthumb -0.557422 -27.251
lclavicle 1.58431e-013 1.03368e-014
lhumerus -28.459 7.37662 86.8789
lradius 31.3269
lwrist -9.04289
lhand -17.9061 23.697
lfingers 7.12502
lthumb 8.36092 53.5115
rfemur -9.21553 5.73162 22.5022
rtibia 29.6631
rfoot -22.732 -2.45283
rtoes 1.69088
lfemur -30.8736 7.82561 -19.2596
ltibia 57.0678
lfoot -9.58831 7.69103
ltoes -9.65293
2032
root 12.0302 17.7195 -5.10566 185.096 224.856 182.411
lowerback 2.44416 -3.72504 -5.00816
upperback 0.355893 -5.09257 4.21187
thorax -0.176439 -2.57642 7.29501
lowerneck -9.70593 -3.85065 -13.2945
upperneck 39.7282 -5.31717 4.06852
head 16.4183 -4.06964 3.17954
rclavicle 3.97569e-014 -2.78299e-014
rhumerus -34.1375 -5.93776 -75.7265
rradius 35.6687
rwrist 17.7767
rhand -27.531 2.78511
rfingers 7.12502
rthumb -0.932905 -27.1926
lclavicle 3.97569e-014 -2.78299e-014
lhumerus -28.635 7.95076 86.6735
lradius 30.729
lwrist -9.31354
lhand -17.6056 23.5343
lfingers 7.12502
lthumb 8.65098 53.3371
rfemur -8.97359 5.77802 22.3885
rtibia 29.4723
rfoot -22.6853 -2.07903
rtoes 2.30575
lfemur -31.3589 7.69032 -19.2486
ltibia 56.6561
lfoot -9.52645 6.50841
ltoes -10.3778
2033
root 11.9929 17.7136 -5.07209 184.989 225.139 182.471
lowerback 2.57562 -3.73913 -5.05485
upperback 0.312027 -5.11749 4.27947
thorax -0.280976 -2.58477 7.40589
lowerneck -9.7485 -3.7919 -13.4246
upperneck 39.7871 -5.16679 3.99145
head 16.4469 -4.04111 3.19285
rclavicle 0 2.38542e-014
rhumerus -34.0508 -5.57321 -75.7729
rradius 35.6676
rwrist 17.7921
rhand -27.5155 2.79696
rfingers 7.12502
rthumb -0.917938 -27.1808
lclavicle 0 2.38542e-014
lhumerus -28.9259 8.85876 86.4533
lradius 30.1259
lwrist -9.79073
lhand -17.4931 23.399
lfingers 7.12502
lthumb 8.75955 53.1972
rfemur -8.69563 5.80105 22.3452
rtibia 29.3884
rfoot -22.7031 -1.79694
rtoes 2.73286
lfemur -31.6604 7.46936 -19.1714
ltibia 56.019
lfoot -9.31514 5.32518
ltoes -12.1138
2034
root 11.9603 17.6945 -5.04002 185.095 225.378 182.27
lowerback 2.64267 -3.66936 -4.79178
upperback 0.31956 -5.0192 4.3035
thorax -0.347634 -2.53331 7.28617
lowerneck -9.68652 -3.81107 -13.4889
upperneck 39.7042 -5.19488 4.01937
head 16.395 -4.05562 3.21134
rclavicle -2.38542e-014 6.36111e-015
rhumerus -33.9894 -5.62486 -75.8039
rradius 35.6563
rwrist 17.9389
rhand -27.4624 2.93554
rfingers 7.12502
rthumb -0.866706 -27.0424
lclavicle -2.38542e-014 6.36111e-015
lhumerus -29.0892 9.50968 86.2336
lradius 29.5348
lwrist -10.3334
lhand -17.3002 23.5528
lfingers 7.12502
lthumb 8.94564 53.3432
rfemur -8.4739 5.92458 22.5232
rtibia 29.3501
rfoot -22.7341 -1.66738
rtoes 2.72976
lfemur -31.9689 7.18984 -18.853
ltibia 55.2247
lfoot -9.12171 4.3191
ltoes -13.0871
2035
root 11.9267 17.6762 -5.00293 185.048 225.635 182.325
lowerback 2.66407 -3.57212 -4.65677
upperback 0.318409 -4.88524 4.2342
thorax -0.400034 -2.46321 7.13696
lowerneck -9.62139 -3.86409 -13.5353
upperneck 39.5805 -5.28097 4.06459
head 16.3279 -4.0867 3.22408
rclavicle -1.70955e-014 1.74931e-014
rhumerus -34.0534 -5.61999 -75.8973
rradius 35.7195
rwrist 17.9231
rhand -27.8961 3.12127
rfingers 7.12502
rthumb -1.28556 -26.8546
lclavicle -1.70955e-014 1.74931e-014
lhumerus -29.2682 9.95353 86.0196
lradius 28.9966
lwrist -10.8357
lhand -17.2643 23.6983
lfingers 7.12502
lthumb 8.98034 53.4871
rfemur -8.24444 6.09906 22.4781
rtibia 29.2668
rfoot -22.8612 -1.55175
rtoes 3.07189
lfemur -32.2294 6.73285 -18.6969
ltibia 54.31
lfoot -9.23048 3.52802
ltoes -11.4533
2036
root 11.8857 17.6807 -4.96183 184.933 225.955 182.43
lowerback 2.67539 -3.50611 -4.60263
upperback 0.326499 -4.79546 4.18436
thorax -0.421022 -2.41703 7.05335
lowerneck -9.59102 -3.8705 -13.6048
upperneck 39.4872 -5.27638 4.07979
head 16.2744 -4.08932 3.24259
rclavicle -1.4074e-013 8.74653e-015
rhumerus -34.0118 -5.35031 -76.0113
rradius 35.7396
rwrist 17.84
rhand -28.018 3.11096
rfingers 7.12502
rthumb -1.40335 -26.8642
lclavicle -1.4074e-013 8.74653e-015
lhumerus -29.53 10.3825 85.7952
lradius 28.5595
lwrist -11.1692
lhand -17.4062 24.0479
lfingers 7.12502
lthumb 8.84335 53.8426
rfemur -7.91067 6.36803 22.3928
rtibia 29.1043
rfoot -23.0211 -1.489
rtoes 3.70301
lfemur -32.4614 6.40841 -18.608
ltibia 53.3746
lfoot -9.28037 2.77401
ltoes -9.51973
2037
root 11.8439 17.6895 -4.92328 184.859 226.289 182.455
lowerback 2.69452 -3.38956 -4.46909
upperback 0.395212 -4.6364 4.08338
thorax -0.40467 -2.33846 6.86776
lowerneck -9.6919 -3.91787 -13.4922
upperneck 39.464 -5.36118 4.09258
head 16.2917 -4.1026 3.21256
rclavicle 9.14409e-015 -2.14687e-014
rhumerus -33.8872 -5.35476 -76.1554
rradius 35.6903
rwrist 17.893
rhand -27.9109 3.17006
rfingers 7.12502
rthumb -1.29983 -26.8057
lclavicle 9.14409e-015 -2.14687e-014
lhumerus -29.652 10.6167 85.5023
lradius 28.1369
lwrist -11.3915
lhand -17.2438 24.0124
lfingers 7.12502
lthumb 9.00006 53.8004
rfemur -7.54814 6.59841 22.3679
rtibia 28.8757
rfoot -23.0473 -1.37321
rtoes 3.94908
lfemur -32.7113 6.31886 -18.5785
ltibia 52.4167
lfoot -9.06485 2.25383
ltoes -10.2835
2038
root 11.8031 17.6925 -4.882 184.794 226.602 182.532
lowerback 2.69505 -3.26372 -4.34902
upperback 0.432972 -4.46439 3.97687
thorax -0.409984 -2.25171 6.68393
lowerneck -9.80216 -3.9742 -13.2483
upperneck 39.408 -5.43841 3.97771
head 16.2818 -4.10704 3.10309
rclavicle 6.14245e-014 1.82882e-014
rhumerus -33.8745 -5.36856 -76.2802
rradius 35.7298
rwrist 17.8614
rhand -27.8066 3.34059
rfingers 7.12502
rthumb -1.19909 -26.6358
lclavicle 6.14245e-014 1.82882e-014
lhumerus -29.806 10.996 85.1989
lradius 27.6442
lwrist -11.8368
lhand -17.1328 23.7459
lfingers 7.12502
lthumb 9.10722 53.5292
rfemur -7.21966 6.64736 22.2735
rtibia 28.5874
rfoot -22.9875 -1.17262
rtoes 3.64857
lfemur -32.9751 6.25167 -18.7054
ltibia 51.3807
lfoot -8.82478 2.2114
ltoes -13.5675
2039
root 11.762 17.6847 -4.84083 184.87 226.853 182.51
lowerback 2.67137 -3.20871 -4.25407
upperback 0.43049 -4.38745 3.97138
thorax -0.418321 -2.21263 6.62186
lowerneck -9.89208 -3.97848 -13.1968
upperneck 39.3484 -5.40688 3.90505
head 16.2634 -4.09052 3.06482
rclavicle 4.05521e-014 1.59028e-015
rhumerus -33.8528 -5.12416 -76.403
rradius 35.8171
rwrist 17.8411
rhand -27.6736 3.38272
rfingers 7.12502
rthumb -1.07069 -26.5943
lclavicle 4.05521e-014 1.59028e-015
lhumerus -30.0895 11.6363 84.9135
lradius 27.254
lwrist -12.3462
lhand -17.4407 23.8133
lfingers 7.12502
lthumb 8.81007 53.6094
rfemur -6.96816 6.80667 22.2854
rtibia 28.3359
rfoot -22.985 -1.19803
rtoes 2.95211
lfemur -33.322 6.12647 -18.6932
ltibia 50.2322
lfoot -8.8139 2.10954
ltoes -14.8658
2040
root 11.7211 17.6766 -4.7988 184.954 227.075 182.488
lowerback 2.61196 -3.18757 -4.19186
upperback 0.457144 -4.35643 3.99254
thorax -0.365032 -2.19965 6.60333
lowerneck -9.92813 -3.94545 -13.3121
upperneck 39.2261 -5.33898 3.98906
head 16.2074 -4.06154 3.13201
rclavicle -2.18663e-014 3.89618e-014
rhumerus -33.6481 -4.98073 -76.5079
rradius 35.7474
rwrist 18.1464
rhand -27.752 3.26297
rfingers 7.12502
rthumb -1.14637 -26.7137
lclavicle -2.18663e-014 3.89618e-014
lhumerus -30.3056 12.0089 84.7652
lradius 26.9446
lwrist -12.4255
lhand -17.5464 23.9402
lfingers 7.12502
lthumb 8.70808 53.7405
rfemur -6.73162 7.0611 22.2992
rtibia 28.1432
rfoot -23.0942 -1.21762
rtoes 2.99354
lfemur -33.606 5.79936 -18.5618
ltibia 48.9284
lfoot -8.89397 1.90129
ltoes -13.7239
2041
root 11.6815 17.6719 -4.75424 184.899 227.264 182.525
lowerback 2.70602 -3.16869 -4.18899
upperback 0.456818 -4.33395 4.04152
thorax -0.417637 -2.18723 6.65963
lowerneck -9.91117 -3.9206 -13.4077
upperneck 39.1415 -5.27134 3.98723
head 16.1553 -4.04386 3.15833
rclavicle 1.30204e-013 -4.13472e-014
rhumerus -33.487 -4.78145 -76.5028
rradius 35.6174
rwrist 18.3703
rhand -27.8941 3.03141
rfingers 7.12502
rthumb -1.28367 -26.9445
lclavicle 1.30204e-013 -4.13472e-014
lhumerus -30.5501 12.1529 84.7422
lradius 26.5866
lwrist -12.2665
lhand -17.2272 24.0315
lfingers 7.12502
lthumb 9.01615 53.8188
rfemur -6.41117 7.20016 22.2626
rtibia 28.0088
rfoot -23.2474 -1.13066
rtoes 3.39392
lfemur -33.75 5.32134 -18.4368
ltibia 47.4975
lfoot -8.62545 1.8817
ltoes -13.3976
2042
root 11.6411 17.668 -4.70854 184.895 227.465 182.513
lowerback 2.80477 -3.13461 -4.12523
upperback 0.441943 -4.2891 4.0788
thorax -0.496697 -2.1622 6.66949
lowerneck -9.87527 -3.91728 -13.3554
upperneck 39.0537 -5.23852 3.87875
head 16.0907 -4.03266 3.10562
rclavicle -1.39149e-015 -7.95139e-016
rhumerus -33.4391 -4.17064 -76.5693
rradius 35.6227
rwrist 18.0561
rhand -27.8973 2.92056
rfingers 7.12502
rthumb -1.28672 -27.0553
lclavicle -1.39149e-015 -7.95139e-016
lhumerus -30.8631 12.443 84.6331
lradius 26.2422
lwrist -12.4673
lhand -17.1727 23.7861
lfingers 7.12502
lthumb 9.06868 53.5711
rfemur -6.15297 7.40514 22.2683
rtibia 27.9443
rfoot -23.3687 -1.05869
rtoes 3.62164
lfemur -33.8972 4.88885 -18.2968
ltibia 45.9512
lfoot -8.15929 1.99321
ltoes -14.2634
2043
root 11.6007 17.6551 -4.66557 184.832 227.703 182.591
lowerback 2.9 -3.10973 -4.15845
upperback 0.469172 -4.25965 4.08158
thorax -0.523478 -2.14735 6.69634
lowerneck -10.0011 -3.90431 -13.3904
upperneck 39.0418 -5.19579 3.90356
head 16.1122 -4.01416 3.12797
rclavicle 6.7388e-014 -2.06736e-014
rhumerus -33.3136 -3.72029 -76.7099
rradius 35.6126
rwrist 17.9753
rhand -27.8901 2.80346
rfingers 7.12502
rthumb -1.2798 -27.1724
lclavicle 6.7388e-014 -2.06736e-014
lhumerus -31.1181 12.797 84.4481
lradius 25.9365
lwrist -12.6942
lhand -17.5493 23.5315
lfingers 7.12502
lthumb 8.70525 53.332
rfemur -5.92831 7.71292 22.2366
rtibia 27.9193
rfoot -23.4681 -1.1965
rtoes 3.20586
lfemur -33.9938 4.65357 -18.2642
ltibia 44.3065
lfoot -7.9553 1.91342
ltoes -17.1808
